<svg width="26" height="16" viewBox="0 0 26 16" fill="none" xmlns="http://www.w3.org/2000/svg">
<path d="M17.9026 15.4736C22.1455 15.4736 25.6393 11.9798 25.6393 7.73678C25.6393 3.50121 22.1381 0 17.8951 0C13.6596 0 10.1658 3.50121 10.1658 7.73678C10.1658 11.9798 13.6596 15.4736 17.9026 15.4736ZM17.9026 13.7749C14.5571 13.7749 11.8719 11.0822 11.8719 7.73678C11.8719 4.39135 14.5497 1.69868 17.8951 1.69868C21.248 1.69868 23.9407 4.39135 23.9407 7.73678C23.9407 11.0822 21.248 13.7749 17.9026 13.7749Z" fill="white"/>
<path d="M18.7264 3.40781V7.0663C18.7264 7.41176 18.5971 7.74472 18.3641 7.99971L15.527 11.1036" stroke="white" stroke-width="1.38352" stroke-linecap="round"/>
<path d="M7.57178 0.467804H17.6023" stroke="white" stroke-width="0.8647" stroke-linecap="round"/>
<path d="M1 4.96426H11.0305" stroke="white" stroke-width="0.8647" stroke-linecap="round"/>
<path d="M1 11.0172H11.0305" stroke="white" stroke-width="0.8647" stroke-linecap="round"/>
<path d="M7.05286 14.9948H17.0834" stroke="white" stroke-width="0.8647" stroke-linecap="round"/>
</svg>
