<svg width="27" height="26" viewBox="0 0 27 26" fill="none" xmlns="http://www.w3.org/2000/svg">
<path d="M12.5752 25.6299H14.7987C15.5928 25.6299 16.1914 25.1765 16.3625 24.4439L16.9611 22.0369C17.3398 21.9206 17.7064 21.7811 18.024 21.6299L20.2353 22.9206C20.895 23.316 21.6647 23.2462 22.2145 22.723L23.7782 21.2462C24.328 20.723 24.4013 19.9555 23.9737 19.3276L22.6298 17.2462C22.7764 16.9323 22.923 16.5951 23.033 16.2695L25.5864 15.6881C26.356 15.5253 26.8203 14.9555 26.8203 14.1997V12.1183C26.8203 11.3741 26.356 10.8044 25.5864 10.6416L23.0574 10.0602C22.9353 9.68808 22.7764 9.35088 22.642 9.07181L23.9981 6.9439C24.4257 6.30436 24.3647 5.57181 23.7905 5.04855L22.2022 3.56018C21.6525 3.08343 20.9561 2.99041 20.2964 3.33925L18.024 4.66483C17.7064 4.51367 17.3521 4.38576 16.9611 4.25785L16.3625 1.81599C16.1914 1.08343 15.5928 0.629944 14.7987 0.629944H12.5752C11.7811 0.629944 11.1702 1.08343 11.0114 1.81599L10.4006 4.2346C10.0218 4.3625 9.65531 4.50204 9.32545 4.6532L7.07751 3.33925C6.40557 2.99041 5.7092 3.0718 5.14721 3.5718L3.57121 5.04855C2.99701 5.57181 2.94814 6.30436 3.36352 6.9439L4.71962 9.07181C4.58523 9.35088 4.42641 9.68808 4.30424 10.0602L1.7753 10.6416C1.00563 10.8044 0.541382 11.3741 0.541382 12.1183V14.1997C0.541382 14.9555 1.00563 15.5253 1.7753 15.6881L4.32867 16.2695C4.43862 16.5951 4.58523 16.9323 4.74405 17.2462L3.40017 19.3276C2.96036 19.9555 3.03366 20.723 3.58343 21.2462L5.14721 22.723C5.69698 23.2462 6.46666 23.316 7.12638 22.9206L9.33767 21.6299C9.66753 21.7811 10.0218 21.9206 10.4006 22.0369L11.0114 24.4439C11.1702 25.1765 11.7811 25.6299 12.5752 25.6299ZM13.6869 17.1765C11.3535 17.1765 9.4354 15.3509 9.4354 13.1183C9.4354 10.909 11.3535 9.09506 13.6869 9.09506C16.0204 9.09506 17.9263 10.909 17.9263 13.1183C17.9263 15.3509 16.0204 17.1765 13.6869 17.1765Z" fill="#939393"/>
</svg>
