<svg width="52" height="31" viewBox="0 0 52 31" fill="none" xmlns="http://www.w3.org/2000/svg">
<path d="M49.8728 9.31714C49.6745 9.05271 49.3205 8.92479 48.9877 8.99733C45.1506 9.7314 43.3196 7.72048 41.2904 5.44514C39.1726 3.13782 36.6795 0.502102 31.7892 1.33759C31.4228 1.49438 31.145 1.68315 31.0106 2.02013L26.4073 13.5616L26.3065 13.8144L22.7112 22.8285C22.5096 23.334 22.7292 23.7989 23.2603 23.9908C23.7914 24.1826 24.2799 23.9736 24.4815 23.4681L27.8751 14.9594C31.4009 14.4984 33.0884 16.3611 35.0627 18.5202C36.4085 19.9703 37.8976 21.5686 40.0219 22.3361C41.2611 22.7838 42.8117 22.9585 44.5639 22.6278C44.8967 22.5552 45.1745 22.3664 45.3089 22.0295L50.013 10.2352C50.1474 9.89826 50.0712 9.58157 49.8728 9.31714Z" fill="#939393"/>
<path d="M2.26594 9.3079C2.46428 9.04347 2.81833 8.91555 3.15107 8.98809C6.98824 9.72216 8.81917 7.71125 10.8484 5.4359C12.9662 3.12858 15.4593 0.492863 20.3496 1.32835C20.716 1.48514 20.9938 1.67391 21.1282 2.01089L25.7315 13.5524L25.8323 13.8051L29.4276 22.8193C29.6292 23.3247 29.4095 23.7896 28.8785 23.9815C28.3474 24.1734 27.8589 23.9644 27.6573 23.4589L24.2637 14.9502C20.7379 14.4891 19.0504 16.3519 17.0761 18.511C15.7303 19.961 14.2412 21.5593 12.1169 22.3269C10.8777 22.7746 9.32707 22.9493 7.57486 22.6185C7.24212 22.546 6.96429 22.3572 6.82989 22.0202L2.12579 10.226C1.99138 9.88902 2.06761 9.57233 2.26594 9.3079Z" fill="#939393"/>
</svg>
