<svg width="63" height="15" viewBox="0 0 63 15" fill="none" xmlns="http://www.w3.org/2000/svg">
<path d="M48.6832 5.9187C51.0624 5.9187 52.9933 7.75353 52.9933 10.0209C52.9933 10.196 52.9782 10.3675 52.9544 10.5359C52.6869 12.559 50.8784 14.1225 48.6826 14.1225C46.424 14.1225 44.5772 12.4729 44.3895 10.371C44.3788 10.2551 44.3707 10.1386 44.3707 10.0209C44.3707 7.75412 46.3016 5.9187 48.6832 5.9187ZM50.842 8.47407L49.9619 9.31053C50.0304 9.42285 50.085 9.54414 50.1182 9.672H51.358C51.294 9.22449 51.1138 8.81822 50.842 8.47407ZM51.3618 10.3824H50.1138C50.0781 10.5091 50.0266 10.6285 49.9569 10.7397L50.8383 11.5773C51.1107 11.2362 51.2959 10.8275 51.3618 10.3824ZM49.0561 12.5691C49.5219 12.5082 49.9469 12.3331 50.3053 12.0768L49.429 11.2415C49.3147 11.3055 49.1873 11.3527 49.0561 11.3849V12.5691V12.5691ZM49.0561 8.65511C49.1904 8.68916 49.3179 8.74114 49.4365 8.80686L50.3128 7.9716C49.9531 7.70991 49.5244 7.53784 49.0555 7.4757L49.0561 8.65511ZM48.3097 7.4757C47.8383 7.53784 47.4102 7.71051 47.0498 7.9722L47.9268 8.80686C48.0448 8.74114 48.1735 8.68916 48.3091 8.65511L48.3097 7.4757ZM48.3097 12.5691V11.3861C48.1766 11.3521 48.0511 11.3055 47.9343 11.2404L47.0586 12.0768C47.4171 12.3343 47.8421 12.5082 48.3097 12.5691ZM46.5232 11.5797L47.4064 10.7385C47.3392 10.6279 47.2821 10.5102 47.2463 10.3824H46.0084C46.0737 10.8275 46.2501 11.2386 46.5232 11.5797ZM47.2463 9.6726C47.2796 9.54414 47.3336 9.42285 47.4014 9.31113L46.5225 8.47467C46.2495 8.81822 46.0699 9.22509 46.0059 9.67319H47.2463V9.6726Z" fill="#82A5C6"/>
<path d="M13.5781 10.0203C13.5781 8.19866 12.5499 6.60461 11.0219 5.72454L21.1769 1.44308H27.5478C27.927 1.44308 28.2346 1.73584 28.2346 2.09731V2.95647C28.2346 3.31734 27.9276 3.6107 27.5478 3.6107H27.0959V4.20638H28.2515C28.615 4.20638 28.9395 4.42804 29.0531 4.75664L29.1454 5.01893C31.249 4.85702 32.2496 6.38952 33.3011 6.38952L34.011 5.57637C34.4341 5.09063 35.082 4.83491 35.7423 4.89287C35.9432 4.91079 36.1573 4.94903 36.3751 5.01893L36.7737 6.38952C36.7737 6.38952 40.3889 6.18937 45.0881 6.35009C44.0536 7.2684 43.4014 8.57267 43.4014 10.0221C43.4014 10.1655 43.3769 13.2007 43.3769 13.2007H12.3772C12.9899 12.4909 13.4048 11.6186 13.5323 10.6519C13.5618 10.429 13.5781 10.2199 13.5781 10.0203Z" fill="#82A5C6"/>
<path d="M53.9632 10.0203C53.9632 8.8684 53.5495 7.81028 52.8627 6.96128C56.4936 7.44284 60.0215 8.24524 62.5601 9.56983C62.5601 10.2725 59.3159 9.58118 59.3159 11.0324H61.8187C62.071 11.0324 62.2757 11.2266 62.2757 11.4674V12.7651C62.2757 13.0053 62.0717 13.2006 61.8187 13.2006H55.5608C55.3078 13.2006 55.1031 13.0059 55.1031 12.7651V10.7612H53.8966C53.9023 10.7241 53.9117 10.6889 53.9167 10.6506C53.9475 10.429 53.9632 10.2199 53.9632 10.0203Z" fill="#82A5C6"/>
<path d="M1.70823 0.629944H8.39618C9.0258 0.629944 9.53552 1.11509 9.53552 1.71375V3.13334C9.53552 3.42012 9.41563 3.69615 9.20219 3.89929L8.03773 5.007C5.2468 5.13724 3.01581 7.33294 3.01581 10.0204C3.01581 10.0867 3.02335 10.1542 3.02649 10.2199H0.570769V1.71435C0.569514 1.11509 1.07986 0.629944 1.70823 0.629944Z" fill="#82A5C6"/>
<path d="M8.10998 5.9187C10.4891 5.9187 12.42 7.75353 12.42 10.0209C12.42 10.196 12.405 10.3675 12.3811 10.5359C12.1137 12.559 10.3046 14.1225 8.10873 14.1225C5.85012 14.1225 4.0033 12.4729 3.81498 10.371C3.80431 10.2551 3.79741 10.1386 3.79741 10.0209C3.79803 7.75412 5.72771 5.9187 8.10998 5.9187ZM10.2681 8.47407L9.38869 9.31053C9.45711 9.42285 9.51109 9.54414 9.54499 9.672H10.7854C10.7208 9.22449 10.5406 8.81822 10.2681 8.47407ZM10.7885 10.3824H9.5406C9.50482 10.5091 9.45335 10.6285 9.38367 10.7397L10.265 11.5773C10.5375 11.2362 10.7226 10.8275 10.7885 10.3824ZM8.48286 12.5691C8.94864 12.5082 9.37425 12.3331 9.73206 12.0768L8.85573 11.2427C8.74086 11.3061 8.61343 11.3533 8.48223 11.3861V12.5691H8.48286ZM8.48286 8.65511C8.61782 8.68916 8.74525 8.74114 8.86327 8.80686L9.7396 7.9716C9.38053 7.70991 8.95115 7.53784 8.4816 7.4757V8.6557H8.48286V8.65511ZM7.73648 7.4757C7.26504 7.53784 6.83692 7.71051 6.4766 7.9722L7.35293 8.80686C7.47094 8.74114 7.59963 8.68916 7.73522 8.65511L7.73648 7.4757ZM7.73648 12.5691V11.3861C7.60339 11.3521 7.47785 11.3055 7.36046 11.2404L6.48413 12.0768C6.8432 12.3343 7.26881 12.5082 7.73648 12.5691ZM5.9493 11.5797L6.83316 10.7385C6.76599 10.6279 6.70824 10.5102 6.67246 10.3824H5.43455C5.50109 10.8275 5.67686 11.2386 5.9493 11.5797ZM6.67308 9.6726C6.70761 9.54414 6.76034 9.42285 6.82876 9.31113L5.94993 8.47467C5.67686 8.81822 5.49733 9.22509 5.43393 9.67319H6.67308V9.6726Z" fill="#82A5C6"/>
</svg>
